<svg xmlns="http://www.w3.org/2000/svg" viewBox="450 60 300 300" width="300" height="300">
<circle cx="600.00" cy="80.00" r="6.97" fill="#0a0a0a"/>
<circle cx="629.98" cy="83.50" r="8.14" fill="#0a0a0a"/>
<circle cx="658.34" cy="93.83" r="9.37" fill="#0a0a0a"/>
<circle cx="683.56" cy="110.41" r="10.57" fill="#0a0a0a"/>
<circle cx="704.28" cy="132.37" r="11.62" fill="#0a0a0a"/>
<circle cx="719.37" cy="158.51" r="12.42" fill="#0a0a0a"/>
<circle cx="728.03" cy="187.43" r="12.89" fill="#0a0a0a"/>
<circle cx="729.78" cy="217.56" r="12.99" fill="#0a0a0a"/>
<circle cx="724.54" cy="247.28" r="12.70" fill="#0a0a0a"/>
<circle cx="712.58" cy="275.00" r="12.05" fill="#0a0a0a"/>
<circle cx="694.56" cy="299.21" r="11.12" fill="#0a0a0a"/>
<circle cx="671.44" cy="318.61" r="9.98" fill="#0a0a0a"/>
<circle cx="644.46" cy="332.16" r="8.75" fill="#0a0a0a"/>
<circle cx="615.09" cy="339.12" r="7.54" fill="#0a0a0a"/>
<circle cx="584.91" cy="339.12" r="6.44" fill="#0a0a0a"/>
<circle cx="555.54" cy="332.16" r="5.52" fill="#0a0a0a"/>
<circle cx="528.56" cy="318.61" r="4.83" fill="#0a0a0a"/>
<circle cx="505.44" cy="299.21" r="4.37" fill="#0a0a0a"/>
<circle cx="487.42" cy="275.00" r="4.12" fill="#0a0a0a"/>
<circle cx="475.46" cy="247.28" r="4.02" fill="#0a0a0a"/>
<circle cx="470.22" cy="217.56" r="4.00" fill="#0a0a0a"/>
<circle cx="471.97" cy="187.43" r="4.00" fill="#0a0a0a"/>
<circle cx="480.63" cy="158.51" r="4.05" fill="#0a0a0a"/>
<circle cx="495.72" cy="132.37" r="4.22" fill="#0a0a0a"/>
<circle cx="516.44" cy="110.41" r="4.57" fill="#0a0a0a"/>
<circle cx="541.66" cy="93.83" r="5.14" fill="#0a0a0a"/>
<circle cx="570.02" cy="83.50" r="5.95" fill="#0a0a0a"/>
<circle cx="600.00" cy="80.00" r="6.97" fill="#0a0a0a"/>
<circle cx="600.00" cy="107.00" r="3.59" fill="#0a0a0a"/>
<circle cx="627.79" cy="110.82" r="4.06" fill="#0a0a0a"/>
<circle cx="653.52" cy="121.99" r="4.50" fill="#0a0a0a"/>
<circle cx="675.28" cy="139.70" r="4.89" fill="#0a0a0a"/>
<circle cx="691.45" cy="162.61" r="5.19" fill="#0a0a0a"/>
<circle cx="700.85" cy="189.04" r="5.36" fill="#0a0a0a"/>
<circle cx="702.76" cy="217.03" r="5.40" fill="#0a0a0a"/>
<circle cx="697.05" cy="244.49" r="5.29" fill="#0a0a0a"/>
<circle cx="684.15" cy="269.40" r="5.05" fill="#0a0a0a"/>
<circle cx="665.00" cy="289.90" r="4.71" fill="#0a0a0a"/>
<circle cx="641.04" cy="304.47" r="4.28" fill="#0a0a0a"/>
<circle cx="614.03" cy="312.04" r="3.82" fill="#0a0a0a"/>
<circle cx="585.97" cy="312.04" r="3.37" fill="#0a0a0a"/>
<circle cx="558.96" cy="304.47" r="2.96" fill="#0a0a0a"/>
<circle cx="535.00" cy="289.90" r="2.62" fill="#0a0a0a"/>
<circle cx="515.85" cy="269.40" r="2.38" fill="#0a0a0a"/>
<circle cx="502.95" cy="244.49" r="2.25" fill="#0a0a0a"/>
<circle cx="497.24" cy="217.03" r="2.20" fill="#0a0a0a"/>
<circle cx="499.15" cy="189.04" r="2.21" fill="#0a0a0a"/>
<circle cx="508.55" cy="162.61" r="2.30" fill="#0a0a0a"/>
<circle cx="524.72" cy="139.70" r="2.49" fill="#0a0a0a"/>
<circle cx="546.48" cy="121.99" r="2.78" fill="#0a0a0a"/>
<circle cx="572.21" cy="110.82" r="3.16" fill="#0a0a0a"/>
<circle cx="600.00" cy="107.00" r="3.59" fill="#0a0a0a"/>
<path d="M585 153 L650 218 L585 283" fill="none" stroke="#0a0a0a" stroke-width="26" stroke-linecap="round" stroke-linejoin="round"/>
</svg>
