<svg xmlns="http://www.w3.org/2000/svg" width="1200" height="900" viewBox="0 0 1200 900">
<circle cx="600.00" cy="80.00" r="6.97" fill="#9B79D4" opacity="0.560"/>
<circle cx="629.98" cy="83.50" r="8.14" fill="#9B79D4" opacity="0.656"/>
<circle cx="658.34" cy="93.83" r="9.37" fill="#9B79D4" opacity="0.750"/>
<circle cx="683.56" cy="110.41" r="10.57" fill="#9B79D4" opacity="0.836"/>
<circle cx="704.28" cy="132.37" r="11.62" fill="#9B79D4" opacity="0.908"/>
<circle cx="719.37" cy="158.51" r="12.42" fill="#9B79D4" opacity="0.962"/>
<circle cx="728.03" cy="187.43" r="12.89" fill="#9B79D4" opacity="0.993"/>
<circle cx="729.78" cy="217.56" r="12.99" fill="#9B79D4" opacity="0.999"/>
<circle cx="724.54" cy="247.28" r="12.70" fill="#9B79D4" opacity="0.980"/>
<circle cx="712.58" cy="275.00" r="12.05" fill="#9B79D4" opacity="0.938"/>
<circle cx="694.56" cy="299.21" r="11.12" fill="#9B79D4" opacity="0.874"/>
<circle cx="671.44" cy="318.61" r="9.98" fill="#9B79D4" opacity="0.794"/>
<circle cx="644.46" cy="332.16" r="8.75" fill="#9B79D4" opacity="0.703"/>
<circle cx="615.09" cy="339.12" r="7.54" fill="#9B79D4" opacity="0.607"/>
<circle cx="584.91" cy="339.12" r="6.44" fill="#9B79D4" opacity="0.513"/>
<circle cx="555.54" cy="332.16" r="5.52" fill="#9B79D4" opacity="0.425"/>
<circle cx="528.56" cy="318.61" r="4.83" fill="#9B79D4" opacity="0.350"/>
<circle cx="505.44" cy="299.21" r="4.37" fill="#9B79D4" opacity="0.291"/>
<circle cx="487.42" cy="275.00" r="4.12" fill="#9B79D4" opacity="0.250"/>
<circle cx="475.46" cy="247.28" r="4.02" fill="#9B79D4" opacity="0.228"/>
<circle cx="470.22" cy="217.56" r="4.00" fill="#9B79D4" opacity="0.220"/>
<circle cx="471.97" cy="187.43" r="4.00" fill="#9B79D4" opacity="0.222"/>
<circle cx="480.63" cy="158.51" r="4.05" fill="#9B79D4" opacity="0.237"/>
<circle cx="495.72" cy="132.37" r="4.22" fill="#9B79D4" opacity="0.269"/>
<circle cx="516.44" cy="110.41" r="4.57" fill="#9B79D4" opacity="0.319"/>
<circle cx="541.66" cy="93.83" r="5.14" fill="#9B79D4" opacity="0.386"/>
<circle cx="570.02" cy="83.50" r="5.95" fill="#9B79D4" opacity="0.468"/>
<circle cx="600.00" cy="80.00" r="6.97" fill="#9B79D4" opacity="0.560"/>
<circle cx="600.00" cy="107.00" r="3.59" fill="#B89BDF" opacity="0.300"/>
<circle cx="627.79" cy="110.82" r="4.06" fill="#B89BDF" opacity="0.338"/>
<circle cx="653.52" cy="121.99" r="4.50" fill="#B89BDF" opacity="0.373"/>
<circle cx="675.28" cy="139.70" r="4.89" fill="#B89BDF" opacity="0.402"/>
<circle cx="691.45" cy="162.61" r="5.19" fill="#B89BDF" opacity="0.424"/>
<circle cx="700.85" cy="189.04" r="5.36" fill="#B89BDF" opacity="0.437"/>
<circle cx="702.76" cy="217.03" r="5.40" fill="#B89BDF" opacity="0.440"/>
<circle cx="697.05" cy="244.49" r="5.29" fill="#B89BDF" opacity="0.432"/>
<circle cx="684.15" cy="269.40" r="5.05" fill="#B89BDF" opacity="0.414"/>
<circle cx="665.00" cy="289.90" r="4.71" fill="#B89BDF" opacity="0.388"/>
<circle cx="641.04" cy="304.47" r="4.28" fill="#B89BDF" opacity="0.356"/>
<circle cx="614.03" cy="312.04" r="3.82" fill="#B89BDF" opacity="0.319"/>
<circle cx="585.97" cy="312.04" r="3.37" fill="#B89BDF" opacity="0.281"/>
<circle cx="558.96" cy="304.47" r="2.96" fill="#B89BDF" opacity="0.244"/>
<circle cx="535.00" cy="289.90" r="2.62" fill="#B89BDF" opacity="0.212"/>
<circle cx="515.85" cy="269.40" r="2.38" fill="#B89BDF" opacity="0.186"/>
<circle cx="502.95" cy="244.49" r="2.25" fill="#B89BDF" opacity="0.168"/>
<circle cx="497.24" cy="217.03" r="2.20" fill="#B89BDF" opacity="0.160"/>
<circle cx="499.15" cy="189.04" r="2.21" fill="#B89BDF" opacity="0.163"/>
<circle cx="508.55" cy="162.61" r="2.30" fill="#B89BDF" opacity="0.176"/>
<circle cx="524.72" cy="139.70" r="2.49" fill="#B89BDF" opacity="0.198"/>
<circle cx="546.48" cy="121.99" r="2.78" fill="#B89BDF" opacity="0.227"/>
<circle cx="572.21" cy="110.82" r="3.16" fill="#B89BDF" opacity="0.262"/>
<circle cx="600.00" cy="107.00" r="3.59" fill="#B89BDF" opacity="0.300"/>
<path d="M585 153 L650 218 L585 283" fill="none" stroke="#A784DE" stroke-width="26" stroke-linecap="round" stroke-linejoin="round"/>
<text x="600" y="510" text-anchor="middle" font-family="Avenir Next, Gotham, Montserrat, Helvetica, Arial, sans-serif" font-size="62" letter-spacing="16" fill="#1C1823">HAPTIC ATLAS</text>
<text x="600" y="575" text-anchor="middle" font-family="Avenir Next, Gotham, Montserrat, Helvetica, Arial, sans-serif" font-size="24" letter-spacing="14" fill="#7A5A9A">NAVIGATE BY FEEL</text>
</svg>
